<?xml version="1.0" encoding="UTF-8" standalone="no"?>
<svg width="1153px" height="316px" viewBox="0 0 1153 316" version="1.1" xmlns="http://www.w3.org/2000/svg" xmlns:xlink="http://www.w3.org/1999/xlink" xmlns:sketch="http://www.bohemiancoding.com/sketch/ns">
    <!-- Generator: Sketch 3.0.3 (7891) - http://www.bohemiancoding.com/sketch -->
    <title>Group</title>
    <desc>Created with Sketch.</desc>
    <defs></defs>
    <g id="Page-1" stroke="none" stroke-width="1" fill="none" fill-rule="evenodd" sketch:type="MSPage">
        <g id="Group" sketch:type="MSLayerGroup" transform="translate(1.000000, 1.000000)">
            <path d="M0.605315626,314.218765 C0.605315626,314.218765 -12.4001523,1.68820276 168.890624,56.7929693 C350.181401,111.897736 735.991095,7.40908761 921.851592,31.6210947 C1107.71209,55.8331017 1151.33065,313.000002 1151.33065,313.000002" id="Path-127" stroke="#00E7FF" fill-opacity="0.1" fill="#00E6FF" sketch:type="MSShapeGroup"></path>
            <path d="M0.605315626,314.218765 C0.605315626,314.218765 666.887969,84.9999992 770.885162,85.0000004 C874.882354,85.0000017 1151.33065,313.000002 1151.33065,313.000002" id="Path-128" stroke="#8A00FF" fill-opacity="0.1" fill="#8A00FF" sketch:type="MSShapeGroup"></path>
            <path d="M0.605315626,314.218765 C0.605315626,314.218765 8.70991939,105.549831 190.000696,160.654598 C371.291473,215.759364 506.806254,358.90311 575.967987,238.047631 C645.129719,117.192153 906.385338,177.029775 906.385338,177.029775 L1151.33065,313.000002" id="Path-126" stroke="#FF00AC" fill-opacity="0.214730525" fill="#FD00AB" sketch:type="MSShapeGroup"></path>
            <path d="M0.605315626,314.218765 L79.9996333,0.069694957 C79.9996333,0.069694957 608.491566,252.645188 656.88626,262.308846 C933.72865,317.589909 1151.33065,313.000002 1151.33065,313.000002" id="Path-129" stroke="#00FF4B" sketch:type="MSShapeGroup"></path>
        </g>
    </g>
</svg>